<?xml version="1.0" encoding="UTF-8" standalone="no"?>
<!-- Created with Inkscape (http://www.inkscape.org/) -->

<svg
   width="139.29227mm"
   height="142.93959mm"
   viewBox="0 0 139.29227 142.93959"
   version="1.1"
   id="svg1"
   xml:space="preserve"
   inkscape:version="1.3 (0e150ed, 2023-07-21)"
   sodipodi:docname="logo.svg"
   xmlns:inkscape="http://www.inkscape.org/namespaces/inkscape"
   xmlns:sodipodi="http://sodipodi.sourceforge.net/DTD/sodipodi-0.dtd"
   xmlns="http://www.w3.org/2000/svg"
   xmlns:svg="http://www.w3.org/2000/svg"><sodipodi:namedview
     id="namedview1"
     pagecolor="#ffffff"
     bordercolor="#000000"
     borderopacity="0.25"
     inkscape:showpageshadow="2"
     inkscape:pageopacity="0.0"
     inkscape:pagecheckerboard="0"
     inkscape:deskcolor="#d1d1d1"
     inkscape:document-units="mm"
     showgrid="false"
     showborder="true"
     inkscape:zoom="0.60738884"
     inkscape:cx="306.22888"
     inkscape:cy="397.60362"
     inkscape:window-width="1728"
     inkscape:window-height="990"
     inkscape:window-x="0"
     inkscape:window-y="38"
     inkscape:window-maximized="1"
     inkscape:current-layer="layer2"><inkscape:grid
       id="grid350444"
       units="mm"
       originx="-133.62091"
       originy="-291.13776"
       spacingx="0.99999998"
       spacingy="1"
       empcolor="#0099e5"
       empopacity="0.30196078"
       color="#0099e5"
       opacity="0.14901961"
       empspacing="5"
       dotted="false"
       gridanglex="30"
       gridanglez="30"
       visible="false" /></sodipodi:namedview><defs
     id="defs1" /><g
     inkscape:groupmode="layer"
     id="layer2"
     inkscape:label="Layer 2"
     style="display:inline;opacity:1"
     transform="translate(-35.353865,-77.030201)"><g
       id="g350448"
       transform="translate(1.6138055,17.984709)"><path
         id="rect350430"
         style="fill:#4ba6e4;fill-opacity:1;stroke-width:0.264583"
         d="m 77.99507,163.20836 h 50.78225 v 30.29623 H 77.99507 Z" /><path
         id="rect350428"
         style="fill:#152240;fill-opacity:1;stroke-width:0.264583"
         d="m 65.200671,59.045492 c -17.429074,0 -31.460612,14.03102 -31.460612,31.460095 v 80.019403 c 0,17.42908 14.031538,31.4601 31.460612,31.4601 h 76.371569 c 17.42907,0 31.46009,-14.03102 31.46009,-31.4601 V 90.505587 c 0,-17.429075 -14.03102,-31.460095 -31.46009,-31.460095 z m -1.139982,8.89093 h 78.195231 c 11.74568,0 21.2018,9.455608 21.2018,21.20129 v 82.983048 c 0,11.74568 -9.45612,21.20129 -21.2018,21.20129 H 64.060689 c -11.745681,0 -21.20129,-9.45561 -21.20129,-21.20129 V 89.137712 c 0,-11.745682 9.455609,-21.20129 21.20129,-21.20129 z" /><path
         style="fill:#152240;fill-opacity:1;stroke-width:0.264583"
         d="m 86.131568,154.05237 h 9.377405 c -0.601258,-30.41388 4.269018,-18.93328 -35.3456,-65.930365 -3.992574,0.156675 -7.077267,-0.442114 -6.203513,7.069122 32.911613,39.076843 31.829668,31.995063 32.171708,58.861243 z"
         id="path350430"
         sodipodi:nodetypes="ccccc" /><path
         style="fill:#152240;fill-opacity:1;stroke-width:0.264583"
         d="m 120.64082,154.05237 h -9.37741 c 0.60126,-30.41388 -4.26902,-18.93328 35.3456,-65.930364 3.99258,0.156675 7.07727,-0.442113 6.20352,7.069122 -32.91162,39.076842 -31.82967,31.995062 -32.17171,58.861242 z"
         id="path350446"
         sodipodi:nodetypes="ccccc" /><path
         id="path350429"
         style="fill:#4ba6e4;fill-opacity:1;stroke:#4ba5e3;stroke-width:0.279702;stroke-opacity:1"
         d="m 92.568514,89.162245 a 8.4350491,8.4350491 0 0 1 -8.435049,8.435049 8.4350491,8.4350491 0 0 1 -8.435049,-8.435049 8.4350491,8.4350491 0 0 1 8.435049,-8.435049 8.4350491,8.4350491 0 0 1 8.435049,8.435049 z" /><path
         id="circle350429"
         style="fill:#4ba6e4;fill-opacity:1;stroke-width:0.279702"
         d="m 111.82124,108.48029 a 8.4350491,8.4350491 0 0 1 -8.43505,8.43505 8.4350491,8.4350491 0 0 1 -8.435045,-8.43505 8.4350491,8.4350491 0 0 1 8.435045,-8.43505 8.4350491,8.4350491 0 0 1 8.43505,8.43505 z" /><path
         id="path350447"
         style="fill:#4ba6e4;fill-opacity:1;stroke-width:0.279702"
         d="m 131.07397,89.162245 a 8.4350491,8.4350491 0 0 1 -8.43505,8.435049 8.4350491,8.4350491 0 0 1 -8.43505,-8.435049 8.4350491,8.4350491 0 0 1 8.43505,-8.435049 8.4350491,8.4350491 0 0 1 8.43505,8.435049 z" /></g></g></svg>
